<svg width="16" height="16" viewBox="0 0 16 16" fill="none" xmlns="http://www.w3.org/2000/svg">
<path d="M0.499982 15.4316C0.420724 15.4317 0.342591 15.4129 0.272026 15.3768C0.201461 15.3407 0.140487 15.2884 0.0941312 15.2241C0.0477756 15.1598 0.0173673 15.0854 0.00541395 15.0071C-0.00653939 14.9287 0.000304773 14.8486 0.025382 14.7734L1.32998 10.8594C1.3547 10.7859 1.39615 10.719 1.45108 10.6641L11.4 0.714848C11.4942 0.623048 11.6207 0.572046 11.7522 0.572888C11.8837 0.573731 12.0096 0.626351 12.1026 0.71935C12.1956 0.812348 12.2482 0.938237 12.249 1.06975C12.2498 1.20125 12.1988 1.32779 12.107 1.42195L2.24218 11.2881L1.29098 14.1406L4.14358 13.19L14.793 2.54105L13.6738 1.42195C13.5807 1.32804 13.5286 1.20108 13.5289 1.06885C13.5292 0.936623 13.5818 0.809893 13.6753 0.716393C13.7688 0.622893 13.8956 0.570237 14.0278 0.569947C14.16 0.569658 14.287 0.621758 14.3809 0.714848L15.8535 2.18755C15.9472 2.28131 15.9999 2.40847 15.9999 2.54105C15.9999 2.67363 15.9472 2.80078 15.8535 2.89455L4.76758 13.9805C4.71268 14.0354 4.64584 14.0769 4.57228 14.1016L0.658182 15.4062C0.607087 15.4229 0.553714 15.4314 0.499982 15.4316Z" fill="#6B7280"/>
</svg>
