<svg width="17" height="12" viewBox="0 0 17 12" fill="none" xmlns="http://www.w3.org/2000/svg">
<path d="M6.67188 11.6719C6.52604 11.6719 6.39062 11.6458 6.26562 11.5938C6.15104 11.5417 6.04688 11.4688 5.95312 11.375L1.29688 6.70312C1.20312 6.61979 1.125 6.51562 1.0625 6.39062C1.01042 6.26562 0.984375 6.13021 0.984375 5.98438C0.984375 5.71354 1.08333 5.47917 1.28125 5.28125C1.47917 5.08333 1.71354 4.98438 1.98438 4.98438C2.13021 4.98438 2.26562 5.01562 2.39062 5.07812C2.51562 5.13021 2.61979 5.20312 2.70312 5.29688L6.67188 9.25L15.2969 0.625C15.3802 0.541667 15.4792 0.473958 15.5938 0.421875C15.7188 0.369792 15.849 0.34375 15.9844 0.34375C16.2656 0.34375 16.5 0.442708 16.6875 0.640625C16.8854 0.838542 16.9844 1.07292 16.9844 1.34375C16.9844 1.47917 16.9583 1.60938 16.9062 1.73438C16.8646 1.84896 16.7969 1.95312 16.7031 2.04688L7.375 11.375C7.28125 11.4688 7.17188 11.5417 7.04688 11.5938C6.93229 11.6458 6.80729 11.6719 6.67188 11.6719Z" fill="white"/>
</svg>
